<?xml version="1.0"?>
<svg width="164" height="46" xmlns="http://www.w3.org/2000/svg" xmlns:svg="http://www.w3.org/2000/svg">
 <defs>
  <style>.cls-1 {
        fill: #fff;
      }

      .cls-1, .cls-2, .cls-3 {
        fill-rule: evenodd;
      }

      .cls-2 {
        fill: #214d63;
      }

      .cls-3 {
        fill: #fcdb02;
      }</style>
 </defs>
 <g class="layer">
  <title>Layer 1</title>
  <path class="cls-2" d="m51.96,32.52l-17.29,-17.6c-1.8,1.4 -5.81,4.5 -7.91,5.93a4.17,4.17 0 0 1 -2.36,0.73a4.4,4.4 0 0 1 -3.98,-2.47c-0.48,-1 -0.96,-3.08 1.2,-5.71a86.2,86.2 0 0 1 6.6,-7.35a40.36,40.36 0 0 0 -4.93,-3.93c-4.95,-3.32 -15.38,-2.25 -20.59,5.97c-6.74,10.63 1.02,20.45 3.91,23.38c5.85,5.92 16.54,11.98 21.05,13.91c3.98,1.7 5.68,-0.53 6.37,-2.23c-3.76,-2.38 -12.06,-8.81 -12.46,-9.12a0.37,0.37 0 1 1 0.46,-0.58c0.1,0.07 9.26,7.17 12.76,9.3c1.27,0.23 4.36,0.46 5.64,-2.32c-3.85,-2.58 -12.72,-10.13 -13.14,-10.49a0.37,0.37 0 1 1 0.48,-0.57c0.1,0.09 9.47,8.07 13.19,10.52a4.79,4.79 0 0 0 5.04,-3.78c-3.67,-2.43 -12.31,-9.99 -12.72,-10.34a0.37,0.37 0 1 1 0.49,-0.56c0.1,0.09 9.22,8.05 12.75,10.35c1.12,0.11 4.26,0.13 5.59,-2.94a0.74,0.74 0 0 1 -0.15,-0.1z" id="svg_1"/>
  <path class="cls-3" d="m35,14.01c-1.19,0.93 -6.1,4.73 -8.47,6.35a3.46,3.46 0 0 1 -1.96,0.6a3.69,3.69 0 0 1 -3.34,-2.06c-0.4,-0.85 -0.8,-2.62 1.12,-4.95c3.5,-4.25 7.35,-8.69 12.48,-12.12a12.44,12.44 0 0 1 6.84,-1.83a17.06,17.06 0 0 1 14.47,7.94c6.69,10.52 -0.06,21.1 -2.95,23.97l-0.27,0.27l-17.92,-18.17z" id="svg_2"/>
 </g>
</svg>