<?xml version="1.0"?>
<svg width="164" height="46" xmlns="http://www.w3.org/2000/svg" xmlns:svg="http://www.w3.org/2000/svg">
 <defs>
  <style>.cls-1 {
        fill: #fff;
      }

      .cls-1, .cls-2 {
        fill-rule: evenodd;
      }

      .cls-2 {
        fill: #fcdb02;
      }</style>
 </defs>
 <g class="layer">
  <title>Layer 1</title>
  <path class="cls-1" d="m51.96,32.54l-17.29,-17.6c-1.8,1.4 -5.81,4.5 -7.91,5.93a4.17,4.17 0 0 1 -2.36,0.72a4.4,4.4 0 0 1 -3.98,-2.47c-0.48,-1 -0.96,-3.08 1.2,-5.71a86.27,86.27 0 0 1 6.6,-7.35a40.38,40.38 0 0 0 -4.93,-3.94c-4.95,-3.32 -15.39,-2.25 -20.59,5.97c-6.74,10.65 1.01,20.47 3.91,23.4c5.85,5.93 16.54,11.99 21.05,13.92c3.98,1.7 5.68,-0.53 6.37,-2.23c-3.76,-2.38 -12.07,-8.82 -12.46,-9.12a0.37,0.37 0 1 1 0.46,-0.59c0.1,0.08 9.26,7.18 12.76,9.3c1.27,0.23 4.36,0.47 5.63,-2.32c-3.84,-2.58 -12.72,-10.14 -13.13,-10.5a0.37,0.37 0 1 1 0.48,-0.57c0.1,0.09 9.47,8.07 13.18,10.53a4.79,4.79 0 0 0 5.05,-3.77c-3.67,-2.44 -12.32,-10 -12.72,-10.35a0.37,0.37 0 1 1 0.49,-0.56c0.1,0.09 9.22,8.06 12.75,10.36c1.12,0.11 4.26,0.13 5.59,-2.95a0.74,0.74 0 0 1 -0.15,-0.1z" id="svg_1"/>
  <path class="cls-2" d="m35,14.02c-1.19,0.93 -6.1,4.73 -8.47,6.35a3.46,3.46 0 0 1 -1.96,0.6a3.69,3.69 0 0 1 -3.34,-2.05c-0.41,-0.86 -0.8,-2.63 1.12,-4.96c3.5,-4.25 7.34,-8.7 12.47,-12.13a12.43,12.43 0 0 1 6.84,-1.83a17.06,17.06 0 0 1 14.48,7.94c6.69,10.54 -0.06,21.12 -2.95,23.99l-0.27,0.27l-17.92,-18.18z" id="svg_2"/>
 </g>
</svg>